# Blender v2.79 (sub 0) OBJ File: 'exporter.blend'
# www.blender.org
v 0.300000 -0.300000 -0.300000
v 0.300000 -0.300000 0.300000
v -0.300000 -0.300000 -0.300000
v -0.300000 -0.300000 0.300000
v 0.300000 0.300000 -0.300000
v 0.300000 0.300000 0.300000
v -0.300000 0.300000 -0.300000
v -0.300000 0.300000 0.300000
vt 0.500000 0.250043
vt 0.749957 0.250043
vt 0.749957 0.500000
vt 0.500000 0.500000
vt 0.500000 0.749957
vt 0.250043 0.749957
vt 0.250043 0.500000
vt 0.000087 0.500000
vt 0.000087 0.250043
vt 0.250043 0.250043
vt 0.250043 0.000087
vt 0.500000 0.000087
vt 0.500000 0.999913
vt 0.250043 0.999913
vn 0.0000 -1.0000 0.0000
vn -1.0000 0.0000 0.0000
vn 0.0000 1.0000 0.0000
vn 1.0000 0.0000 0.0000
vn 0.0000 0.0000 -1.0000
vn 0.0000 0.0000 1.0000
s off
f 1/1/1 2/2/1 4/3/1 3/4/1
f 3/4/2 4/5/2 8/6/2 7/7/2
f 7/7/3 8/8/3 6/9/3 5/10/3
f 5/10/4 6/11/4 2/12/4 1/1/4
f 3/4/5 7/7/5 5/10/5 1/1/5
f 8/6/6 4/5/6 2/13/6 6/14/6
