# Blender v2.79 (sub 0) OBJ File: 'exporter.blend'
# www.blender.org
v 0.000000 0.000000 -0.300000
v 0.000000 0.000000 0.300000
v -0.300000 0.000000 -0.300000
v -0.300000 0.000000 0.300000
v -0.294236 0.058527 -0.300000
v -0.294236 0.058527 0.300000
v -0.277164 0.114805 -0.300000
v -0.277164 0.114805 0.300000
v -0.249441 0.166671 -0.300000
v -0.249441 0.166671 0.300000
v -0.212132 0.212132 -0.300000
v -0.212132 0.212132 0.300000
v -0.166671 0.249441 -0.300000
v -0.166671 0.249441 0.300000
v -0.114805 0.277164 -0.300000
v -0.114805 0.277164 0.300000
v -0.058527 0.294236 -0.300000
v -0.058527 0.294236 0.300000
v -0.000000 0.300000 -0.300000
v -0.000000 0.300000 0.300000
v 0.058527 0.294236 -0.300000
v 0.058527 0.294236 0.300000
v 0.114805 0.277164 -0.300000
v 0.114805 0.277164 0.300000
v 0.166671 0.249441 -0.300000
v 0.166671 0.249441 0.300000
v 0.212132 0.212132 -0.300000
v 0.212132 0.212132 0.300000
v 0.249441 0.166671 -0.300000
v 0.249441 0.166671 0.300000
v 0.277164 0.114805 -0.300000
v 0.277164 0.114805 0.300000
v 0.294236 0.058527 -0.300000
v 0.294236 0.058527 0.300000
v 0.300000 -0.000000 -0.300000
v 0.300000 -0.000000 0.300000
v 0.294236 -0.058527 -0.300000
v 0.294236 -0.058527 0.300000
v 0.277164 -0.114805 -0.300000
v 0.277164 -0.114805 0.300000
v 0.249441 -0.166671 -0.300000
v 0.249441 -0.166671 0.300000
v 0.212132 -0.212132 -0.300000
v 0.212132 -0.212132 0.300000
v 0.166671 -0.249441 -0.300000
v 0.166671 -0.249441 0.300000
v 0.114805 -0.277164 -0.300000
v 0.114805 -0.277164 0.300000
v 0.058527 -0.294236 -0.300000
v 0.058527 -0.294236 0.300000
v -0.000000 -0.300000 -0.300000
v -0.000000 -0.300000 0.300000
v -0.058527 -0.294236 -0.300000
v -0.058527 -0.294236 0.300000
v -0.114805 -0.277164 -0.300000
v -0.114805 -0.277164 0.300000
v -0.166671 -0.249441 -0.300000
v -0.166671 -0.249441 0.300000
v -0.212132 -0.212132 -0.300000
v -0.212132 -0.212132 0.300000
v -0.249441 -0.166671 -0.300000
v -0.249441 -0.166671 0.300000
v -0.277164 -0.114805 -0.300000
v -0.277164 -0.114805 0.300000
v -0.294236 -0.058527 -0.300000
v -0.294236 -0.058527 0.300000
vt 0.477714 0.158725
vt 0.402587 0.018171
vt 0.431451 0.006215
vt 0.477714 0.476174
vt 0.402587 0.616728
vt 0.376609 0.599370
vt 0.318868 0.375030
vt 0.000124 0.375029
vt 0.000124 0.343786
vt 0.318869 0.343788
vt 0.462093 0.000120
vt 0.431451 0.628684
vt 0.000125 0.312544
vt 0.318869 0.312545
vt 0.493336 0.000120
vt 0.462093 0.634779
vt 0.000125 0.281302
vt 0.318869 0.281303
vt 0.523978 0.006215
vt 0.493335 0.634779
vt 0.000125 0.250059
vt 0.318869 0.250060
vt 0.552842 0.018171
vt 0.523977 0.628683
vt 0.000125 0.218817
vt 0.318869 0.218818
vt 0.578819 0.035529
vt 0.552842 0.616727
vt 0.000125 0.187574
vt 0.318869 0.187575
vt 0.600910 0.057620
vt 0.578819 0.599370
vt 0.000125 0.156332
vt 0.318869 0.156333
vt 0.618268 0.083597
vt 0.600910 0.577278
vt 0.000125 0.125090
vt 0.318869 0.125090
vt 0.630224 0.112462
vt 0.618268 0.551301
vt 0.000125 0.093847
vt 0.318869 0.093848
vt 0.636319 0.143104
vt 0.630224 0.522437
vt 0.000125 0.062605
vt 0.318869 0.062605
vt 0.636319 0.174346
vt 0.636319 0.491795
vt 0.000125 0.031362
vt 0.318869 0.031363
vt 0.630223 0.204988
vt 0.636319 0.460553
vt 0.000125 0.000120
vt 0.318869 0.000120
vt 0.618267 0.233852
vt 0.630223 0.429910
vt 0.318863 0.999880
vt 0.000120 0.999876
vt 0.000120 0.968634
vt 0.318864 0.968638
vt 0.600910 0.259830
vt 0.618267 0.401046
vt 0.000121 0.937392
vt 0.318864 0.937395
vt 0.578818 0.281921
vt 0.600910 0.375069
vt 0.000121 0.906149
vt 0.318865 0.906153
vt 0.552841 0.299278
vt 0.578818 0.352977
vt 0.000121 0.874907
vt 0.318865 0.874910
vt 0.523977 0.311234
vt 0.552841 0.335620
vt 0.000121 0.843665
vt 0.318865 0.843668
vt 0.493335 0.317329
vt 0.523977 0.323664
vt 0.000122 0.812422
vt 0.318865 0.812425
vt 0.462093 0.317329
vt 0.493335 0.317569
vt 0.000122 0.781180
vt 0.318866 0.781183
vt 0.431450 0.311234
vt 0.462093 0.317569
vt 0.000122 0.749937
vt 0.318866 0.749940
vt 0.402586 0.299278
vt 0.431451 0.323664
vt 0.000122 0.718695
vt 0.318866 0.718698
vt 0.376609 0.281921
vt 0.402586 0.335620
vt 0.000123 0.687453
vt 0.318867 0.687455
vt 0.354517 0.259829
vt 0.376609 0.352978
vt 0.000123 0.656210
vt 0.318867 0.656213
vt 0.337160 0.233852
vt 0.354518 0.375069
vt 0.000123 0.624968
vt 0.318867 0.624970
vt 0.325204 0.204988
vt 0.337160 0.401046
vt 0.000123 0.593725
vt 0.318867 0.593728
vt 0.319109 0.174345
vt 0.325204 0.429911
vt 0.000123 0.562483
vt 0.318867 0.562485
vt 0.319109 0.143103
vt 0.319109 0.460553
vt 0.000124 0.531241
vt 0.318868 0.531243
vt 0.325204 0.112461
vt 0.319109 0.491795
vt 0.000124 0.499998
vt 0.318868 0.500000
vt 0.337161 0.083597
vt 0.325204 0.522438
vt 0.000124 0.468756
vt 0.318868 0.468758
vt 0.354518 0.057619
vt 0.337160 0.551302
vt 0.000124 0.437513
vt 0.318868 0.437515
vt 0.376610 0.035528
vt 0.354518 0.577279
vt 0.000124 0.406271
vt 0.318868 0.406273
vn 0.0000 0.0000 -1.0000
vn 0.0000 0.0000 1.0000
vn -0.9952 0.0980 0.0000
vn -0.9569 0.2903 0.0000
vn -0.8819 0.4714 0.0000
vn -0.7730 0.6344 0.0000
vn -0.6344 0.7730 0.0000
vn -0.4714 0.8819 0.0000
vn -0.2903 0.9569 0.0000
vn -0.0980 0.9952 0.0000
vn 0.0980 0.9952 0.0000
vn 0.2903 0.9569 0.0000
vn 0.4714 0.8819 0.0000
vn 0.6344 0.7730 0.0000
vn 0.7730 0.6344 0.0000
vn 0.8819 0.4714 0.0000
vn 0.9569 0.2903 0.0000
vn 0.9952 0.0980 0.0000
vn 0.9952 -0.0980 0.0000
vn 0.9569 -0.2903 0.0000
vn 0.8819 -0.4714 0.0000
vn 0.7730 -0.6344 0.0000
vn 0.6344 -0.7730 0.0000
vn 0.4714 -0.8819 0.0000
vn 0.2903 -0.9569 0.0000
vn 0.0980 -0.9952 0.0000
vn -0.0980 -0.9952 0.0000
vn -0.2903 -0.9569 0.0000
vn -0.4714 -0.8819 0.0000
vn -0.6344 -0.7730 0.0000
vn -0.7730 -0.6344 0.0000
vn -0.8819 -0.4714 0.0000
vn -0.9569 -0.2903 0.0000
vn -0.9952 -0.0980 0.0000
s off
f 1/1/1 3/2/1 5/3/1
f 2/4/2 6/5/2 4/6/2
f 3/7/3 4/8/3 6/9/3 5/10/3
f 1/1/1 5/3/1 7/11/1
f 2/4/2 8/12/2 6/5/2
f 5/10/4 6/9/4 8/13/4 7/14/4
f 1/1/1 7/11/1 9/15/1
f 2/4/2 10/16/2 8/12/2
f 7/14/5 8/13/5 10/17/5 9/18/5
f 1/1/1 9/15/1 11/19/1
f 2/4/2 12/20/2 10/16/2
f 9/18/6 10/17/6 12/21/6 11/22/6
f 1/1/1 11/19/1 13/23/1
f 2/4/2 14/24/2 12/20/2
f 11/22/7 12/21/7 14/25/7 13/26/7
f 1/1/1 13/23/1 15/27/1
f 2/4/2 16/28/2 14/24/2
f 13/26/8 14/25/8 16/29/8 15/30/8
f 1/1/1 15/27/1 17/31/1
f 2/4/2 18/32/2 16/28/2
f 15/30/9 16/29/9 18/33/9 17/34/9
f 1/1/1 17/31/1 19/35/1
f 2/4/2 20/36/2 18/32/2
f 17/34/10 18/33/10 20/37/10 19/38/10
f 1/1/1 19/35/1 21/39/1
f 2/4/2 22/40/2 20/36/2
f 19/38/11 20/37/11 22/41/11 21/42/11
f 1/1/1 21/39/1 23/43/1
f 2/4/2 24/44/2 22/40/2
f 21/42/12 22/41/12 24/45/12 23/46/12
f 1/1/1 23/43/1 25/47/1
f 2/4/2 26/48/2 24/44/2
f 23/46/13 24/45/13 26/49/13 25/50/13
f 1/1/1 25/47/1 27/51/1
f 2/4/2 28/52/2 26/48/2
f 25/50/14 26/49/14 28/53/14 27/54/14
f 1/1/1 27/51/1 29/55/1
f 2/4/2 30/56/2 28/52/2
f 27/57/15 28/58/15 30/59/15 29/60/15
f 1/1/1 29/55/1 31/61/1
f 2/4/2 32/62/2 30/56/2
f 29/60/16 30/59/16 32/63/16 31/64/16
f 1/1/1 31/61/1 33/65/1
f 2/4/2 34/66/2 32/62/2
f 31/64/17 32/63/17 34/67/17 33/68/17
f 1/1/1 33/65/1 35/69/1
f 2/4/2 36/70/2 34/66/2
f 33/68/18 34/67/18 36/71/18 35/72/18
f 1/1/1 35/69/1 37/73/1
f 2/4/2 38/74/2 36/70/2
f 35/72/19 36/71/19 38/75/19 37/76/19
f 1/1/1 37/73/1 39/77/1
f 2/4/2 40/78/2 38/74/2
f 37/76/20 38/75/20 40/79/20 39/80/20
f 1/1/1 39/77/1 41/81/1
f 2/4/2 42/82/2 40/78/2
f 39/80/21 40/79/21 42/83/21 41/84/21
f 1/1/1 41/81/1 43/85/1
f 2/4/2 44/86/2 42/82/2
f 41/84/22 42/83/22 44/87/22 43/88/22
f 1/1/1 43/85/1 45/89/1
f 2/4/2 46/90/2 44/86/2
f 43/88/23 44/87/23 46/91/23 45/92/23
f 1/1/1 45/89/1 47/93/1
f 2/4/2 48/94/2 46/90/2
f 45/92/24 46/91/24 48/95/24 47/96/24
f 1/1/1 47/93/1 49/97/1
f 2/4/2 50/98/2 48/94/2
f 47/96/25 48/95/25 50/99/25 49/100/25
f 1/1/1 49/97/1 51/101/1
f 2/4/2 52/102/2 50/98/2
f 49/100/26 50/99/26 52/103/26 51/104/26
f 1/1/1 51/101/1 53/105/1
f 2/4/2 54/106/2 52/102/2
f 51/104/27 52/103/27 54/107/27 53/108/27
f 1/1/1 53/105/1 55/109/1
f 2/4/2 56/110/2 54/106/2
f 53/108/28 54/107/28 56/111/28 55/112/28
f 1/1/1 55/109/1 57/113/1
f 2/4/2 58/114/2 56/110/2
f 55/112/29 56/111/29 58/115/29 57/116/29
f 1/1/1 57/113/1 59/117/1
f 2/4/2 60/118/2 58/114/2
f 57/116/30 58/115/30 60/119/30 59/120/30
f 1/1/1 59/117/1 61/121/1
f 2/4/2 62/122/2 60/118/2
f 59/120/31 60/119/31 62/123/31 61/124/31
f 1/1/1 61/121/1 63/125/1
f 2/4/2 64/126/2 62/122/2
f 61/124/32 62/123/32 64/127/32 63/128/32
f 1/1/1 63/125/1 65/129/1
f 2/4/2 66/130/2 64/126/2
f 63/128/33 64/127/33 66/131/33 65/132/33
f 1/1/1 65/129/1 3/2/1
f 2/4/2 4/6/2 66/130/2
f 65/132/34 66/131/34 4/8/34 3/7/34
